<svg width="88" height="39" viewBox="0 0 88 39" fill="none" xmlns="http://www.w3.org/2000/svg">
<circle cx="16.9651" cy="3.49259" r="3.49259" fill="#D32F2F"/>
<path fill-rule="evenodd" clip-rule="evenodd" d="M30.7793 9.83029C29.4246 10.2286 28.2585 10.5861 28.1882 10.6245C28.1178 10.663 27.764 10.7818 27.4017 10.8883C27.0077 11.0042 26.8827 11.1097 26.8827 11.1097C26.7922 11.1358 26.5616 11.222 26.5205 11.214C26.4793 11.2059 21.5228 13.0469 19.2597 14.1747C17.8823 14.8611 17.197 15.2565 15.9958 16.058C13.781 17.5359 12.4589 19.0204 12.1898 20.3318C12.0731 20.8998 12.1304 21.2261 12.4294 21.6978C12.8598 22.377 13.6193 22.9231 15.1245 23.6354C16.4412 24.2585 16.2664 24.1829 16.5999 24.3417C16.7563 24.4162 16.8892 24.4771 16.9126 24.4906C16.9361 24.5041 17.2253 24.6394 17.2665 24.6475C17.3076 24.6556 17.5125 24.7627 17.7026 24.8205C17.7606 24.8382 18.0235 24.9272 18.0235 24.9272C18.0235 24.9272 18.147 24.9514 18.3856 25.0419C18.6243 25.1325 18.6555 25.1638 18.8958 25.2733C21.0097 26.2364 21.4402 26.8423 21.231 27.8831C20.9051 29.5035 17.4592 31.6808 10.4143 34.7172C8.39594 35.5871 8.3955 35.5872 11.7906 34.4237C15.2236 33.2471 18.1586 32.1631 20.5192 31.1999C21.1706 30.934 21.9326 30.6234 22.2127 30.5096C25.1669 29.3091 28.3271 27.7315 30.1547 26.545C31.9475 25.3812 32.8119 24.2147 32.4386 23.4631C32.1486 22.8792 31.0583 22.3494 29.5128 22.0411C28.3104 21.8014 26.1556 21.2291 24.9637 20.8328C22.4179 19.9865 20.9278 19.012 20.6393 18.0047C20.5998 17.8668 20.6079 17.5471 20.6575 17.2942C20.8958 16.0774 22.629 14.7157 26.6164 12.6127C27.1143 12.3502 27.6696 12.0676 27.8503 11.985C28.031 11.9022 28.2433 11.8 28.3221 11.7576C28.4009 11.7152 28.6572 11.585 28.8916 11.4682C31.2457 10.2952 33.4296 9.11575 33.2637 9.10718C33.252 9.10656 32.1341 9.43199 30.7793 9.83029Z" fill="#FB8A00"/>
<path fill-rule="evenodd" clip-rule="evenodd" d="M33.409 5.63847C28.8106 5.19157 24.0946 5.94279 19.4276 7.86579C18.4758 8.25794 16.424 9.27502 15.5174 9.80403L14.8601 10.1876L14.246 9.27061C13.9083 8.76627 13.289 8.00449 12.87 7.57781C10.0905 4.74787 6.36486 3.31635 1.695 3.28399C0.690764 3.27709 0.133785 3.35631 0.771968 3.41532C1.31849 3.46584 2.98563 3.95314 3.83935 4.31188C6.33755 5.36175 8.09444 6.78708 9.44754 8.86171C11.0282 11.2852 11.561 13.6766 11.4032 17.6404L11.3901 17.9696L11.9741 17.4739C12.8774 16.7073 16.2674 14.4167 17.6569 13.6341C23.6861 10.2383 29.8544 8.30578 36.2508 7.80867C37.3052 7.72672 39.8459 7.68126 40.763 7.72786C40.9883 7.73931 41.162 7.73249 41.1491 7.71261C41.0844 7.6139 39.3627 6.94699 38.3937 6.64532C37.2116 6.27729 34.6423 5.75832 33.409 5.63847ZM32.5014 26.635C31.9633 27.1373 28.4374 29.5648 27.2662 30.2393C19.7384 34.5747 12.0999 36.6578 4.38016 36.4805C3.77185 36.4666 3.2607 36.4641 3.24428 36.4751C3.19767 36.5063 4.27568 36.9699 5.19929 37.3161C5.85507 37.5618 6.57622 37.7357 8.54515 38.1224C10.7532 38.5561 11.2031 38.6205 12.286 38.6576C14.4587 38.7323 17.0902 38.5346 18.4988 38.1909C21.8341 37.3773 24.4267 36.1188 26.9187 34.1039C28.5602 32.7767 30.2291 30.9358 31.3373 29.2302C32.026 28.1699 33.0137 26.306 32.8922 26.2955C32.8786 26.2943 32.7027 26.4471 32.5014 26.635Z" fill="#D32F2F"/>
<path d="M29.1663 17.6215C29.7221 17.7983 30.2274 17.9625 30.7326 18.1015C30.9979 18.1647 31.1116 18.291 31.1874 18.5562C31.3137 19.0489 31.4779 19.5162 31.6295 19.9962C31.6421 20.0215 31.6547 20.0467 31.6674 20.1099C31.7937 19.6931 31.92 19.3141 32.0337 18.9225C32.0968 18.7331 32.16 18.5436 32.2105 18.3415C32.2358 18.2404 32.2989 18.1899 32.3874 18.1647C32.9684 17.9878 33.5368 17.811 34.1558 17.6215C34.08 17.5962 34.0421 17.5836 34.0042 17.571C33.461 17.4068 32.9179 17.2299 32.3747 17.0657C32.2863 17.0405 32.2358 16.9899 32.2105 16.9015C32.0337 16.3205 31.8568 15.7394 31.6674 15.1205C31.5789 15.411 31.4905 15.6636 31.4147 15.9289C31.3137 16.2447 31.2126 16.5731 31.1242 16.9015C31.0989 17.0026 31.0484 17.0531 30.9474 17.0784C30.3663 17.2426 29.7853 17.4194 29.1663 17.6215Z" fill="#D32F2F"/>
<path d="M6.21505 26.6025C6.77084 26.7793 7.2761 26.9435 7.78135 27.0825C8.04661 27.1456 8.16029 27.2719 8.23608 27.5372C8.36239 28.0298 8.5266 28.4972 8.67818 28.9772C8.69081 29.0024 8.70343 29.0277 8.71607 29.0909C8.84238 28.674 8.9687 28.2951 9.08238 27.9035C9.14554 27.714 9.2087 27.5246 9.25922 27.3225C9.28449 27.2214 9.34765 27.1709 9.43607 27.1456C10.0171 26.9688 10.5855 26.7919 11.2045 26.6025C11.1287 26.5772 11.0908 26.5646 11.0529 26.5519C10.5097 26.3877 9.96659 26.2109 9.42344 26.0467C9.33502 26.0214 9.28449 25.9709 9.25922 25.8825C9.08238 25.3014 8.90554 24.7204 8.71607 24.1014C8.62765 24.392 8.53923 24.6446 8.46344 24.9099C8.36239 25.2256 8.26134 25.5541 8.17292 25.8825C8.14766 25.9835 8.09713 26.034 7.99608 26.0593C7.41504 26.2235 6.83399 26.4004 6.21505 26.6025Z" fill="#D32F2F"/>
<path d="M30.1543 15.1109C29.9567 15.0527 29.7492 14.9849 29.5516 14.9268C29.4627 14.8977 29.4034 14.859 29.3837 14.7621C29.3244 14.5586 29.2552 14.3552 29.1861 14.1227C29.1169 14.3455 29.0478 14.549 28.9885 14.7524C28.9588 14.8493 28.9094 14.8977 28.8106 14.9268C28.6032 14.9752 28.4056 15.0431 28.1684 15.1206C28.4154 15.1981 28.6229 15.2659 28.8304 15.324C28.9094 15.3434 28.9588 15.3821 28.9786 15.4693C29.0379 15.6728 29.107 15.8859 29.1861 16.1184C29.2552 15.8956 29.3244 15.6922 29.3837 15.4984C29.4133 15.4015 29.4528 15.3531 29.5615 15.324C29.769 15.2756 29.9666 15.2078 30.1642 15.1399C30.1543 15.1206 30.1543 15.1206 30.1543 15.1109Z" fill="#D32F2F"/>
<path d="M7.20304 24.0917C7.00544 24.0336 6.79796 23.9658 6.60036 23.9076C6.51144 23.8786 6.45215 23.8398 6.43239 23.7429C6.37311 23.5395 6.30395 23.336 6.23479 23.1035C6.16563 23.3263 6.09647 23.5298 6.03719 23.7332C6.00755 23.8301 5.95816 23.8786 5.85936 23.9076C5.65188 23.9561 5.45428 24.0239 5.21715 24.1014C5.46416 24.1789 5.67163 24.2467 5.87911 24.3048C5.95815 24.3242 6.00755 24.363 6.02731 24.4502C6.08659 24.6536 6.15575 24.8668 6.23479 25.0993C6.30395 24.8765 6.37311 24.673 6.43239 24.4792C6.46203 24.3824 6.50156 24.3339 6.61024 24.3048C6.81772 24.2564 7.01532 24.1886 7.21292 24.1208C7.20304 24.1014 7.20304 24.1014 7.20304 24.0917Z" fill="#D32F2F"/>
<path d="M34.7613 23.5695C34.7613 22.8948 34.9466 22.3061 35.317 21.8033C35.7007 21.2873 36.2299 20.8904 36.9046 20.6126C37.5794 20.3348 38.3533 20.1959 39.2265 20.1959C39.6631 20.1959 40.1063 20.2289 40.5561 20.2951C41.006 20.3612 41.3962 20.4671 41.727 20.6126V20.0569C41.727 19.3954 41.5285 18.8861 41.1316 18.5289C40.748 18.1716 40.1725 17.993 39.4051 17.993C38.8362 17.993 38.2938 18.0923 37.7778 18.2907C37.2618 18.4892 36.7194 18.7802 36.1505 19.1639L35.2972 17.4175C35.9851 16.9677 36.6863 16.6303 37.4007 16.4054C38.1284 16.1805 38.8891 16.0681 39.6829 16.0681C41.1647 16.0681 42.3157 16.4385 43.136 17.1794C43.9695 17.9203 44.3862 18.9787 44.3862 20.3546V23.6688C44.3862 23.9466 44.4325 24.145 44.5252 24.2641C44.631 24.3832 44.7964 24.4559 45.0213 24.4824V26.6455C44.7831 26.6852 44.5648 26.7183 44.3664 26.7448C44.1812 26.7712 44.0224 26.7844 43.8901 26.7844C43.3609 26.7844 42.9574 26.6654 42.6796 26.4272C42.415 26.1891 42.2496 25.898 42.1834 25.554L42.1239 25.0182C41.6741 25.6003 41.1118 26.0502 40.4371 26.3677C39.7623 26.6852 39.0744 26.844 38.3732 26.844C37.6852 26.844 37.0634 26.7051 36.5077 26.4272C35.9653 26.1362 35.5353 25.7459 35.2178 25.2564C34.9135 24.7536 34.7613 24.1913 34.7613 23.5695ZM41.2309 24.1053C41.3764 23.9466 41.4955 23.7878 41.5881 23.6291C41.6807 23.4703 41.727 23.3248 41.727 23.1925V22.1407C41.4095 22.0084 41.0655 21.9092 40.695 21.843C40.3246 21.7636 39.974 21.7239 39.6433 21.7239C38.9553 21.7239 38.3864 21.8761 37.9366 22.1804C37.5 22.4714 37.2817 22.8617 37.2817 23.3512C37.2817 23.6158 37.3544 23.8672 37.5 24.1053C37.6455 24.3435 37.8572 24.5353 38.135 24.6809C38.4129 24.8264 38.7436 24.8992 39.1273 24.8992C39.5242 24.8992 39.9145 24.8264 40.2981 24.6809C40.6818 24.5221 40.9927 24.3303 41.2309 24.1053Z" fill="#181818"/>
<path d="M46.5841 12.1586H49.2433V23.3115C49.2433 23.7878 49.3227 24.112 49.4815 24.284C49.6402 24.4427 49.8585 24.5221 50.1364 24.5221C50.3481 24.5221 50.5664 24.4956 50.7913 24.4427C51.0162 24.3898 51.2146 24.3236 51.3866 24.2443L51.7438 26.2685C51.3866 26.4405 50.9699 26.5728 50.4936 26.6654C50.0173 26.758 49.5873 26.8043 49.2037 26.8043C48.3702 26.8043 47.7219 26.586 47.2588 26.1494C46.809 25.6996 46.5841 25.0645 46.5841 24.2443V12.1586Z" fill="#181818"/>
<path d="M56.4653 26.844C55.5789 26.844 54.7321 26.6984 53.9251 26.4074C53.1181 26.1163 52.4235 25.6863 51.8414 25.1174L52.7939 23.3909C53.4157 23.8937 54.0243 24.2641 54.6197 24.5023C55.2283 24.7404 55.8104 24.8595 56.3661 24.8595C56.882 24.8595 57.2922 24.7669 57.5965 24.5816C57.914 24.3964 58.0727 24.1186 58.0727 23.7481C58.0727 23.4968 57.9867 23.3049 57.8148 23.1726C57.6428 23.0271 57.3914 22.9014 57.0606 22.7956C56.7431 22.6897 56.3528 22.5707 55.8898 22.4384C55.1224 22.187 54.4808 21.9422 53.9648 21.7041C53.4488 21.4659 53.0585 21.1683 52.7939 20.8111C52.5426 20.4406 52.4169 19.9709 52.4169 19.402C52.4169 18.7141 52.5889 18.1253 52.9328 17.6358C53.2901 17.1331 53.7796 16.7428 54.4014 16.465C55.0364 16.1871 55.7773 16.0482 56.624 16.0482C57.3649 16.0482 58.0661 16.1673 58.7276 16.4054C59.3891 16.6303 59.9911 17.0008 60.5335 17.5168L59.4619 19.2036C58.9327 18.7935 58.43 18.4958 57.9537 18.3106C57.4774 18.1121 56.9945 18.0129 56.505 18.0129C56.2271 18.0129 55.9625 18.046 55.7112 18.1121C55.473 18.1783 55.2746 18.2907 55.1158 18.4495C54.9703 18.595 54.8975 18.8067 54.8975 19.0845C54.8975 19.3359 54.9637 19.5343 55.096 19.6799C55.2415 19.8122 55.4532 19.9313 55.731 20.0371C56.0221 20.1429 56.3727 20.262 56.7828 20.3943C57.6163 20.6324 58.3175 20.8772 58.8864 21.1286C59.4685 21.3799 59.9051 21.6909 60.1962 22.0613C60.4872 22.4185 60.6328 22.9146 60.6328 23.5497C60.6328 24.5816 60.2557 25.3887 59.5016 25.9708C58.7475 26.5529 57.7354 26.844 56.4653 26.844Z" fill="#181818"/>
<path d="M62.1742 26.6455V16.2467H64.8334V26.6455H62.1742ZM62.1742 14.798V12.1586H64.8334V14.798H62.1742Z" fill="#181818"/>
<path d="M69.7632 26.6455L65.9331 16.2467H68.6916L71.3112 24.2244L73.9506 16.2467H76.4709L72.6606 26.6455H69.7632Z" fill="#181818"/>
<path d="M82.0624 26.844C81.2157 26.844 80.455 26.7051 79.7802 26.4272C79.1055 26.1362 78.53 25.7393 78.0537 25.2365C77.5907 24.7338 77.2335 24.1583 76.9821 23.51C76.7307 22.8617 76.605 22.1804 76.605 21.4659C76.605 20.7383 76.7307 20.0503 76.9821 19.402C77.2335 18.7538 77.5907 18.1783 78.0537 17.6755C78.53 17.1728 79.1055 16.7825 79.7802 16.5047C80.455 16.2136 81.2157 16.0681 82.0624 16.0681C82.9092 16.0681 83.6633 16.2136 84.3248 16.5047C84.9995 16.7825 85.575 17.1728 86.0513 17.6755C86.5276 18.1783 86.8848 18.7538 87.123 19.402C87.3743 20.0503 87.5 20.7383 87.5 21.4659C87.5 22.1804 87.3743 22.8617 87.123 23.51C86.8848 24.1583 86.5276 24.7338 86.0513 25.2365C85.5883 25.7393 85.0194 26.1362 84.3446 26.4272C83.6699 26.7051 82.9092 26.844 82.0624 26.844ZM79.3437 21.4659C79.3437 22.0745 79.4627 22.617 79.7009 23.0932C79.939 23.5563 80.2631 23.9201 80.6733 24.1847C81.0834 24.4493 81.5465 24.5816 82.0624 24.5816C82.5652 24.5816 83.0216 24.4493 83.4318 24.1847C83.8419 23.9069 84.166 23.5365 84.4042 23.0734C84.6555 22.5971 84.7812 22.0547 84.7812 21.4461C84.7812 20.8507 84.6555 20.3149 84.4042 19.8386C84.166 19.3624 83.8419 18.9919 83.4318 18.7273C83.0216 18.4627 82.5652 18.3304 82.0624 18.3304C81.5465 18.3304 81.0834 18.4693 80.6733 18.7472C80.2631 19.0118 79.939 19.3822 79.7009 19.8585C79.4627 20.3215 79.3437 20.8574 79.3437 21.4659Z" fill="#181818"/>
</svg>
